<mxfile host="65bd71144e">
    <diagram id="qHISW6VcHIeTnacOirkq" name="Page-1">
        <mxGraphModel dx="1448" dy="570" grid="1" gridSize="10" guides="1" tooltips="1" connect="1" arrows="1" fold="1" page="1" pageScale="1" pageWidth="850" pageHeight="1100" math="0" shadow="0">
            <root>
                <mxCell id="0"/>
                <mxCell id="1" parent="0"/>
                <mxCell id="13" style="edgeStyle=none;html=1;exitX=0;exitY=0.5;exitDx=0;exitDy=0;entryX=1;entryY=0.5;entryDx=0;entryDy=0;" edge="1" parent="1" source="2" target="7">
                    <mxGeometry relative="1" as="geometry"/>
                </mxCell>
                <mxCell id="18" value="" style="edgeStyle=none;html=1;" edge="1" parent="1" source="2" target="17">
                    <mxGeometry relative="1" as="geometry"/>
                </mxCell>
                <mxCell id="2" value="Home:&#10;(All exhibits)" style="ellipse;fontStyle=0" parent="1" vertex="1">
                    <mxGeometry x="360" y="30" width="150" height="110" as="geometry"/>
                </mxCell>
                <mxCell id="12" value="" style="edgeStyle=none;html=1;" edge="1" parent="1" source="3" target="11">
                    <mxGeometry relative="1" as="geometry"/>
                </mxCell>
                <mxCell id="3" value="All Artists" style="rounded=1;" parent="1" vertex="1">
                    <mxGeometry x="135" y="220" width="250" height="60" as="geometry"/>
                </mxCell>
                <mxCell id="4" value="" style="edgeStyle=elbowEdgeStyle;elbow=vertical;" parent="1" source="2" target="3" edge="1">
                    <mxGeometry relative="1" as="geometry"/>
                </mxCell>
                <mxCell id="5" value="Exhibit:&#10;list art for that specific exhibit" style="rounded=1;" parent="1" vertex="1">
                    <mxGeometry x="410" y="220" width="270" height="60" as="geometry"/>
                </mxCell>
                <mxCell id="6" value="" style="edgeStyle=elbowEdgeStyle;elbow=vertical;" parent="1" source="2" target="5" edge="1">
                    <mxGeometry relative="1" as="geometry"/>
                </mxCell>
                <mxCell id="7" value="New Artist Form:&#10;First name&#10;last name&#10;age&#10;location" style="rounded=1;" parent="1" vertex="1">
                    <mxGeometry x="10" y="40" width="180" height="70" as="geometry"/>
                </mxCell>
                <mxCell id="9" value="Add Art Form:&#10;title&#10;medium&#10;description&#10;image_url&#10;artist id" style="rounded=1;" parent="1" vertex="1">
                    <mxGeometry x="5" y="110" width="190" height="100" as="geometry"/>
                </mxCell>
                <mxCell id="11" value="List all art from that artist" style="whiteSpace=wrap;html=1;rounded=1;" vertex="1" parent="1">
                    <mxGeometry x="200" y="320" width="120" height="60" as="geometry"/>
                </mxCell>
                <mxCell id="17" value="All Art" style="whiteSpace=wrap;html=1;fontStyle=0;" vertex="1" parent="1">
                    <mxGeometry x="710" y="190" width="120" height="60" as="geometry"/>
                </mxCell>
            </root>
        </mxGraphModel>
    </diagram>
</mxfile>